<svg width="38" height="32" viewBox="0 0 38 32" fill="none" xmlns="http://www.w3.org/2000/svg">
<path d="M0.390625 24.5C0.390625 24.5256 0.391608 24.5512 0.393571 24.5767C0.486973 25.7909 0.92738 27.5963 1.97857 29.1283C3.05641 30.6991 4.79938 32 7.39062 32H29.8906C29.9144 32 29.9382 31.9992 29.9619 31.9975C31.2891 31.9027 33.2417 31.3731 34.8862 30.0716C36.5712 28.7381 37.8906 26.6218 37.8906 23.5V14H35.8906V23.5C35.8906 25.9782 34.8767 27.5286 33.645 28.5034C32.3871 29.499 30.86 29.9212 29.8533 30H7.39062C5.58187 30 4.40817 29.1342 3.62768 27.9967C2.83084 26.8354 2.4702 25.4126 2.39062 24.46V14H0.390625V24.5ZM26.8906 1H10.8906C7.57692 1 4.89062 3.68629 4.89062 7V20C4.89062 23.3137 7.57692 26 10.8906 26H26.8906C30.2043 26 32.8906 23.3137 32.8906 20V7C32.8906 3.68629 30.2043 1 26.8906 1Z" fill="#FE8E05" stroke="#FE8E05" stroke-width="2" stroke-linejoin="round"/>
</svg>
