<svg width="38" height="32" viewBox="0 0 38 32" fill="none" xmlns="http://www.w3.org/2000/svg">
<path d="M5.5 7C5.5 4.23858 7.73858 2 10.5 2H26.5C29.2614 2 31.5 4.23858 31.5 7V20C31.5 22.7614 29.2614 25 26.5 25H10.5C7.73858 25 5.5 22.7614 5.5 20V7Z" fill="white" fill-opacity="0.2"/>
<path d="M0 24.5C0 24.5256 0.000982583 24.5512 0.00294554 24.5767C0.0963478 25.7909 0.536755 27.5963 1.58794 29.1283C2.66579 30.6991 4.40875 32 7 32H29.5C29.5238 32 29.5475 31.9992 29.5712 31.9975C30.8985 31.9027 32.8511 31.3731 34.4956 30.0716C36.1806 28.7381 37.5 26.6218 37.5 23.5V14H35.5V23.5C35.5 25.9782 34.486 27.5286 33.2544 28.5034C31.9964 29.499 30.4694 29.9212 29.4627 30H7C5.19125 30 4.01754 29.1342 3.23706 27.9967C2.44021 26.8354 2.07957 25.4126 2 24.46V14H0V24.5ZM26.5 1H10.5C7.18629 1 4.5 3.68629 4.5 7V20C4.5 23.3137 7.18629 26 10.5 26H26.5C29.8137 26 32.5 23.3137 32.5 20V7C32.5 3.68629 29.8137 1 26.5 1Z" stroke="white" stroke-opacity="0.2" stroke-width="2" stroke-linejoin="round"/>
</svg>
