<svg width="39" height="32" viewBox="0 0 39 32" fill="none" xmlns="http://www.w3.org/2000/svg">
<path d="M6.3125 7C6.3125 4.23858 8.55108 2 11.3125 2H27.3125C30.0739 2 32.3125 4.23858 32.3125 7V20C32.3125 22.7614 30.0739 25 27.3125 25H11.3125C8.55108 25 6.3125 22.7614 6.3125 20V7Z" fill="white" fill-opacity="0.05"/>
<path d="M0.8125 24.5C0.8125 24.5256 0.813483 24.5512 0.815446 24.5767C0.908848 25.7909 1.34926 27.5963 2.40044 29.1283C3.47829 30.6991 5.22125 32 7.8125 32H30.3125C30.3363 32 30.36 31.9992 30.3837 31.9975C31.711 31.9027 33.6636 31.3731 35.3081 30.0716C36.9931 28.7381 38.3125 26.6218 38.3125 23.5V14H36.3125V23.5C36.3125 25.9782 35.2985 27.5286 34.0669 28.5034C32.8089 29.499 31.2819 29.9212 30.2752 30H7.8125C6.00375 30 4.83004 29.1342 4.04956 27.9967C3.25271 26.8354 2.89207 25.4126 2.8125 24.46V14H0.8125V24.5ZM27.3125 1H11.3125C7.99879 1 5.3125 3.68629 5.3125 7V20C5.3125 23.3137 7.99879 26 11.3125 26H27.3125C30.6262 26 33.3125 23.3137 33.3125 20V7C33.3125 3.68629 30.6262 1 27.3125 1Z" stroke="white" stroke-opacity="0.05" stroke-width="2" stroke-linejoin="round"/>
</svg>
